<svg xmlns="http://www.w3.org/2000/svg" width="1280" height="500" viewBox="0 0 1280 500">
  <rect width="1280" height="500" fill="#f8fafc"/>
  <text x="640" y="42" text-anchor="middle" font-size="30" font-family="Arial" fill="#0f172a">Dense Autoencoder Architecture and Objectives</text>

  <rect x="70" y="170" width="160" height="75" rx="10" fill="#bfdbfe"/><text x="150" y="215" text-anchor="middle" font-size="18" font-family="Arial">Input 6075</text>
  <rect x="290" y="170" width="130" height="75" rx="10" fill="#93c5fd"/><text x="355" y="215" text-anchor="middle" font-size="18" font-family="Arial">1500</text>
  <rect x="470" y="170" width="130" height="75" rx="10" fill="#93c5fd"/><text x="535" y="215" text-anchor="middle" font-size="18" font-family="Arial">1000</text>
  <rect x="650" y="170" width="130" height="75" rx="10" fill="#60a5fa"/><text x="715" y="215" text-anchor="middle" font-size="18" font-family="Arial">Latent 100</text>
  <rect x="830" y="170" width="130" height="75" rx="10" fill="#93c5fd"/><text x="895" y="215" text-anchor="middle" font-size="18" font-family="Arial">1000</text>
  <rect x="1010" y="170" width="130" height="75" rx="10" fill="#93c5fd"/><text x="1075" y="215" text-anchor="middle" font-size="18" font-family="Arial">1500</text>
  <rect x="1140" y="170" width="120" height="75" rx="10" fill="#bfdbfe"/><text x="1200" y="215" text-anchor="middle" font-size="16" font-family="Arial">Output 6075</text>

  <rect x="120" y="320" width="1040" height="120" rx="12" fill="#e2e8f0"/>
  <text x="640" y="360" text-anchor="middle" font-size="22" font-family="Arial">Training: MSE reconstruction loss + Adam(lr=0.001)</text>
  <text x="640" y="395" text-anchor="middle" font-size="20" font-family="Arial">Epochs: 50 | Batch Size: 64 | Additional quality metric: SSIM</text>
</svg>
